# xmcd
#
# Track frame offsets: 
#        150
#        11847
#        31185
#        44210
#        57197
#        80010
#        96962
#        112600
#        130085
#        142255
#        153950
#        166027
#        187820
#        208332
#        221082
#        241150
#
# Disc length: 3387 seconds
#
# Revision: 7
# Processed by: cddbd v1.5.2PL0 Copyright (c) Steve Scherf et al.
# Submitted via: ExactAudioCopyFreeDBPlugin 1.0
#
DISCID=db0d3910
DTITLE=Fleetwood Mac - Mr. Wonderful - RM and Expanded Edition 2004 -
DYEAR=1968
DGENRE=Blues
TTITLE0=Stop Messin' Round (Take 4)
TTITLE1=I've Lost My Baby
TTITLE2=Rollin' Man
TTITLE3=Dust My Broom
TTITLE4=Love That Burns
TTITLE5=Doctor Brown
TTITLE6=Need Your Love Tonight
TTITLE7=If You Be My Baby
TTITLE8=Evenin' Boogie
TTITLE9=Lazy Poker Blues
TTITLE10=Coming Home
TTITLE11=Trying So Hard To Forget
TTITLE12=Stop Messin' Round (Take 1-3)
TTITLE13=Stop Messin' Round (Take 5)
TTITLE14=I Held My Baby Last Night
TTITLE15=Mystery Boogie
EXTD=
EXTT0=(Blue Horrizon LP 7-63200/LP 7-63215]\n* take 4 - master album w
EXTT0=ith studio talk/remix
EXTT1=(Blue Horrizon LP 7-63205)
EXTT2=(Blue Horrizon LP 7-63205)
EXTT3=(Blue Horrizon LP 7-63205)
EXTT4=(Blue Horrizon LP 7-63205)
EXTT5=(Blue Horrizon LP 7-63205)
EXTT6=(Blue Horrizon LP 7-63205)
EXTT7=(Blue Horrizon LP 7-63205)
EXTT8=(Blue Horrizon LP 7-63205)
EXTT9=(Blue Horrizon LP 7-63205)
EXTT10=(Blue Horrizon LP 7-63205/LP 7-63215)
EXTT11=(Blue Horrizon LP 7-63205)
EXTT12=* take 1 - previously unissued/false start\n* take 2 - previous
EXTT12=ly unissued/false start\n*
EXTT13=* take 5 - master single version/remix
EXTT14=* previously unissued
EXTT15=* previously unissued
PLAYORDER=
